<?xml version="1.0" standalone="no"?>
<!DOCTYPE svg PUBLIC "-//W3C//DTD SVG 20010904//EN"
 "http://www.w3.org/TR/2001/REC-SVG-20010904/DTD/svg10.dtd">
<svg version="1.0" xmlns="http://www.w3.org/2000/svg"
 width="104.000000pt" height="98.000000pt" viewBox="0 0 104.000000 98.000000"
 preserveAspectRatio="xMidYMid meet">

<g transform="translate(0.000000,98.000000) scale(0.100000,-0.100000)"
fill="#000000" stroke="none">
<path d="M257 973 c145 -2 381 -2 525 0 145 1 27 2 -262 2 -289 0 -407 -1
-263 -2z"/>
<path d="M272 651 c-59 -10 -67 -21 -65 -92 2 -68 6 -77 27 -60 13 11 88 2
103 -13 9 -9 22 -87 23 -133 0 -35 -3 -43 -18 -43 -18 0 -40 44 -44 86 0 10
-4 -3 -7 -31 -4 -37 -11 -51 -23 -53 -16 -3 -18 5 -18 54 0 38 -3 55 -10 48
-13 -13 -15 -146 -3 -170 6 -10 13 -36 17 -57 4 -20 12 -37 19 -37 7 0 22 -3
35 -6 18 -5 21 -3 16 10 -5 13 0 16 24 16 27 0 42 14 42 40 0 5 -16 12 -36 16
-66 12 -49 64 22 64 36 0 54 -17 33 -31 -11 -7 -10 -9 4 -9 13 0 17 -9 17 -40
0 -27 -5 -43 -15 -46 -8 -4 -15 -13 -15 -21 0 -12 29 -13 198 -8 242 7 302 13
299 28 -1 6 18 18 43 26 25 8 47 17 50 21 3 4 14 9 25 11 19 4 20 13 22 174 2
94 -1 176 -6 184 -6 10 -41 17 -113 22 -56 4 -116 13 -133 20 -74 30 -396 48
-513 30z m198 -142 c51 -11 55 -15 44 -43 -4 -11 -13 -14 -30 -10 -18 5 -24 2
-24 -10 0 -11 9 -16 26 -16 21 0 25 -4 22 -22 -2 -19 -8 -22 -35 -20 -28 3
-33 0 -33 -17 0 -17 6 -21 35 -21 31 0 35 -3 35 -26 0 -25 -2 -26 -37 -20 -21
3 -50 6 -64 6 l-25 0 8 77 c5 43 6 83 4 90 -6 16 3 43 15 43 4 0 31 -5 59 -11z
m318 1 l62 0 0 -31 c0 -29 -2 -30 -30 -24 l-29 6 -3 -68 c-3 -67 -4 -68 -30
-69 -28 -1 -28 -1 -28 67 0 66 -1 69 -24 69 -30 0 -40 13 -31 41 5 15 12 19
28 15 12 -3 50 -6 85 -6z m-162 -47 c4 -21 10 -45 14 -53 4 -8 10 -34 14 -58
6 -41 5 -43 -16 -40 -17 2 -24 11 -26 31 -4 36 -19 35 -27 -3 -9 -40 -35 -40
-35 0 0 44 41 160 56 160 7 0 16 -17 20 -37z m-130 -246 c7 10 14 24 14 31 0
22 20 13 21 -10 1 -18 3 -17 8 6 3 16 12 31 20 34 10 3 12 -1 8 -19 -4 -13 -7
-34 -7 -46 0 -24 -25 -32 -33 -10 -3 8 -10 5 -22 -10 -9 -13 -22 -23 -29 -23
-14 0 -27 44 -25 89 0 22 3 19 16 -17 14 -39 16 -42 29 -25z m124 37 c0 -8 -4
-12 -10 -9 -5 3 -10 10 -10 16 0 5 5 9 10 9 6 0 10 -7 10 -16z m230 -4 c0 -11
7 -20 15 -20 8 0 15 9 15 20 0 11 5 20 10 20 6 0 10 -20 10 -45 0 -25 -4 -45
-10 -45 -5 0 -10 7 -10 15 0 8 -7 15 -15 15 -8 0 -15 -7 -15 -15 0 -8 -4 -15
-10 -15 -5 0 -10 20 -10 45 0 25 5 45 10 45 6 0 10 -9 10 -20z m-120 -15 c0
-8 -7 -15 -15 -15 -8 0 -15 -9 -15 -20 0 -11 -7 -20 -15 -20 -8 0 -15 9 -15
20 0 11 -7 20 -15 20 -8 0 -15 7 -15 15 0 11 12 15 45 15 33 0 45 -4 45 -15z
m88 -2 c2 -8 -5 -13 -17 -13 -12 0 -21 -4 -21 -10 0 -5 9 -10 20 -10 11 0 20
-4 20 -9 0 -16 -20 -23 -46 -17 -18 5 -24 13 -24 35 0 15 3 31 7 35 11 11 56
2 61 -11z m-188 -28 c0 -16 -6 -25 -15 -25 -9 0 -15 9 -15 25 0 16 6 25 15 25
9 0 15 -9 15 -25z"/>
<path d="M597 443 c-13 -12 -7 -43 8 -43 8 0 15 6 15 13 0 18 -15 38 -23 30z"/>
<path d="M58 606 c-8 -7 -24 -17 -36 -20 -18 -6 -22 -15 -22 -47 l0 -39 28 29
c15 16 43 43 62 60 l35 30 -27 1 c-15 0 -33 -6 -40 -14z"/>
<path d="M68 510 l-68 -70 0 -112 0 -111 42 -39 c51 -47 98 -53 98 -13 0 16 6
25 15 25 8 0 15 5 15 10 0 6 4 10 9 10 6 0 9 -12 8 -27 -2 -24 2 -28 27 -31
29 -4 29 -3 22 40 -4 24 -11 47 -17 53 -5 5 -9 17 -9 26 0 9 -14 22 -30 29
l-31 13 7 133 c6 111 5 134 -7 134 -8 0 -44 -32 -81 -70z"/>
<path d="M160 145 c0 -10 10 -15 33 -15 l32 0 -29 15 c-35 18 -36 18 -36 0z"/>
</g>
</svg>
